<svg xmlns="http://www.w3.org/2000/svg" viewBox="0 0 64 64">
  <defs>
    <linearGradient id="bg" x1="8" y1="6" x2="56" y2="58" gradientUnits="userSpaceOnUse">
      <stop offset="0" stop-color="#181c22"/>
      <stop offset="1" stop-color="#3b3f3f"/>
    </linearGradient>
    <linearGradient id="body" x1="16" y1="25" x2="51" y2="43" gradientUnits="userSpaceOnUse">
      <stop offset="0" stop-color="#ffe45c"/>
      <stop offset="0.52" stop-color="#ffbf1f"/>
      <stop offset="1" stop-color="#f27b17"/>
    </linearGradient>
    <filter id="shadow" x="-30%" y="-30%" width="160%" height="160%">
      <feDropShadow dx="0" dy="3" stdDeviation="2.4" flood-color="#000" flood-opacity="0.55"/>
    </filter>
  </defs>
  <rect width="64" height="64" rx="14" fill="url(#bg)"/>
  <path d="M47 25c5 1 8 4 10 9-4-2-8-3-12-3l2-6Z" fill="#d9c19b" opacity=".5"/>
  <path d="M45 30c6 1 10 4 13 8-6-2-11-2-17-1l4-7Z" fill="#f0d7ad" opacity=".38"/>
  <g filter="url(#shadow)" transform="rotate(-12 32 35)">
    <path d="M11 38c2-7 7-13 15-15h14c6 1 11 6 14 13l-4 8H16l-5-6Z" fill="url(#body)"/>
    <path d="M25 24h15c3 1 6 4 8 8l-9-1H24l-7 3c2-5 4-8 8-10Z" fill="#ffd84a"/>
    <path d="M24 27h15c2 1 4 3 6 5l-8 1H25l-5 2c1-4 2-6 4-8Z" fill="#172331"/>
    <path d="M30 25h5l-3 18h-5l3-18Z" fill="#15171c"/>
    <path d="M35 25h2l-3 18h-2l3-18Z" fill="#e21f2f"/>
    <path d="M15 37h8l-3 5h-8l3-5Z" fill="#111318"/>
    <path d="M43 36h9l-3 6h-8l2-6Z" fill="#111318"/>
    <path d="M19 34c2-1 4-1 6-1l-2 4h-7l3-3Z" fill="#6ee6ff"/>
    <path d="M41 33c3 0 5 1 7 3l-7 1-3-3 3-1Z" fill="#6ee6ff"/>
    <circle cx="21" cy="43" r="7" fill="#0d0f12"/>
    <circle cx="21" cy="43" r="3.6" fill="#777f87"/>
    <circle cx="44" cy="43" r="7" fill="#0d0f12"/>
    <circle cx="44" cy="43" r="3.6" fill="#777f87"/>
    <path d="M13 43h39l-4 5H18l-5-5Z" fill="#0a0c0f"/>
    <path d="M15 41h10l-5 5h-7l2-5ZM44 41h9l-2 5h-9l2-5Z" fill="#ff2a24"/>
  </g>
</svg>
