<svg xmlns="http://www.w3.org/2000/svg" viewBox="0 0 64 64">
  <defs>
    <linearGradient id="bg" x1="6" y1="5" x2="58" y2="59" gradientUnits="userSpaceOnUse">
      <stop offset="0" stop-color="#8a8780"/>
      <stop offset=".55" stop-color="#5a564e"/>
      <stop offset="1" stop-color="#242629"/>
    </linearGradient>
    <linearGradient id="red" x1="18" y1="22" x2="46" y2="49" gradientUnits="userSpaceOnUse">
      <stop offset="0" stop-color="#ff5b36"/>
      <stop offset=".48" stop-color="#e20e08"/>
      <stop offset="1" stop-color="#870805"/>
    </linearGradient>
    <filter id="shadow" x="-25%" y="-25%" width="150%" height="150%">
      <feDropShadow dx="0" dy="3" stdDeviation="2.4" flood-color="#000" flood-opacity=".6"/>
    </filter>
  </defs>
  <rect width="64" height="64" rx="14" fill="url(#bg)"/>
  <path d="M36 22c9 0 16 3 22 9-9-2-16-1-24 2l2-11Z" fill="#f1d8ae" opacity=".36"/>
  <g filter="url(#shadow)">
    <path d="M14 20l4-2 3 25-3 2-4-25Z" fill="#151515"/>
    <path d="M18 17c9-5 18 4 30-1l2 15c-12 6-21-4-30 1l-2-15Z" fill="#f4f1e8"/>
    <path d="M20 18l6-2 2 7-6 2-2-7Zm13-1l7 1 1 7-7-1-1-7Zm-10 9l6-2 2 7-6 2-2-7Zm13-1l7 1 1 7-7-1-1-7Z" fill="#181b1f"/>
    <path d="M26 16l7 1 1 7-6-1-2-7Zm14 2c2 0 5 0 8-2l1 7c-3 2-5 2-8 2l-1-7Zm-11 6l7 1 1 7-6-1-2-7Zm15 2c2 0 4 0 6-2l1 6c-2 2-4 2-6 3l-1-7Z" fill="#fff" opacity=".88"/>
    <path d="M17 47c2-9 8-17 18-20 9 0 16 6 20 16l-6 8H22l-5-4Z" fill="url(#red)"/>
    <path d="M31 28h10c4 1 7 4 10 9l-12-2H26l5-7Z" fill="#1b2028"/>
    <path d="M33 30h7c2 0 4 2 6 4l-8-1h-7l2-3Z" fill="#c8e9ff" opacity=".42"/>
    <path d="M29 29h6L25 51h-6l10-22Z" fill="#ff2519"/>
    <path d="M31 31h2l-8 18h-2l8-18Z" fill="#ffd55a"/>
    <path d="M34 31h2l-8 18h-2l8-18Z" fill="#ff9d1a"/>
    <path d="M11 43h15l-6 7H10l1-7Zm42-3h5l-4 10h-9l8-10Z" fill="#08090b"/>
    <circle cx="20" cy="43" r="8" fill="#08090b"/>
    <circle cx="20" cy="43" r="4" fill="#4f565d"/>
    <circle cx="49" cy="42" r="8" fill="#08090b"/>
    <circle cx="49" cy="42" r="4" fill="#4f565d"/>
    <path d="M18 48h31l-3 5H16l2-5Z" fill="#050608"/>
    <path d="M38 26h12l7 5-3 5-14-2-2-8Z" fill="#101217"/>
    <path d="M21 36h8l-3 5h-9l4-5Z" fill="#f4a33c"/>
  </g>
</svg>
